<?xml version="1.0" standalone="no"?>
<!DOCTYPE svg PUBLIC "-//W3C//DTD SVG 20010904//EN"
 "http://www.w3.org/TR/2001/REC-SVG-20010904/DTD/svg10.dtd">
<svg version="1.0" xmlns="http://www.w3.org/2000/svg"
 width="980.000000pt" height="980.000000pt" viewBox="0 0 980.000000 980.000000"
 preserveAspectRatio="xMidYMid meet">
<metadata>
Created by potrace 1.11, written by Peter Selinger 2001-2013
</metadata>
<g transform="translate(0.000000,980.000000) scale(0.100000,-0.100000)"
fill="#000000" stroke="none">
<path d="M2800 9544 c-674 -81 -1303 -384 -1794 -863 -354 -347 -602 -722
-781 -1180 -91 -233 -152 -467 -197 -751 l-23 -145 0 -1700 c0 -1868 -4 -1743
60 -2060 102 -509 335 -1008 662 -1421 111 -141 388 -416 525 -522 482 -374
1026 -593 1617 -652 141 -14 3930 -14 4072 0 1064 105 2009 769 2505 1760 189
378 306 789 344 1210 8 89 10 599 8 1760 l-4 1635 -22 140 c-108 666 -350
1207 -760 1695 -101 121 -318 332 -447 435 -456 365 -1000 592 -1585 660 -180
22 -4004 20 -4180 -1z m4190 -708 c537 -92 987 -323 1365 -701 394 -394 640
-871 736 -1428 38 -226 40 -339 37 -1907 l-4 -1515 -22 -139 c-48 -293 -120
-520 -247 -781 -138 -282 -284 -486 -504 -705 -207 -206 -396 -342 -646 -465
-179 -89 -302 -135 -479 -180 -294 -75 -132 -70 -2326 -70 -2194 0 -2032 -5
-2326 70 -172 44 -298 91 -469 175 -248 121 -450 266 -651 465 -218 216 -366
421 -503 696 -125 251 -205 503 -253 795 l-22 139 -4 1525 c-2 1092 0 1565 8
1665 64 777 449 1471 1065 1922 257 188 590 337 908 408 249 55 184 53 2287
51 1820 -2 1952 -3 2050 -20z"/>
<path d="M4250 4979 c0 -1144 4 -2079 8 -2077 16 6 1992 2072 1990 2079 -4 9
-1989 2079 -1994 2079 -2 0 -4 -936 -4 -2081z"/>
</g>
</svg>
